<?xml version="1.0" encoding="utf-8"?>
<!-- Generator: Adobe Illustrator 16.0.0, SVG Export Plug-In . SVG Version: 6.00 Build 0)  -->
<!DOCTYPE svg PUBLIC "-//W3C//DTD SVG 1.1//EN" "http://www.w3.org/Graphics/SVG/1.1/DTD/svg11.dtd">
<svg version="1.1" id="Layer_1" xmlns="http://www.w3.org/2000/svg" xmlns:xlink="http://www.w3.org/1999/xlink" x="0px" y="0px"
	 width="500px" height="500px" viewBox="0 0 500 500" enable-background="new 0 0 500 500" xml:space="preserve">
<g>
	<path fill="#231F20" d="M347.42,304.12H164.236l-32.688-160.18h-50.24v-13.076h60.912l11.116,54.484h236.94L347.42,304.12z
		 M174.912,291.044h163.324l33.424-92.62H156.008L174.912,291.044z"/>
	<path fill="#231F20" d="M201.172,377.124c-17.424,0-31.6-14.176-31.6-31.601c0-17.424,14.176-31.6,31.6-31.6
		c17.424,0,31.6,14.176,31.6,31.6C232.772,362.948,218.596,377.124,201.172,377.124z M201.172,327
		c-10.216,0-18.524,8.309-18.524,18.523c0,10.213,8.308,18.524,18.524,18.524c10.212,0,18.524-8.308,18.524-18.524
		C219.696,335.312,211.388,327,201.172,327z"/>
	<path fill="#231F20" d="M322.124,377.124c-17.424,0-31.601-14.176-31.601-31.601c0-17.424,14.177-31.6,31.601-31.6
		s31.6,14.176,31.6,31.6C353.724,362.948,339.548,377.124,322.124,377.124z M322.124,327c-10.216,0-18.524,8.309-18.524,18.523
		c0,10.213,8.309,18.524,18.524,18.524c10.212,0,18.524-8.308,18.524-18.524C340.648,335.312,332.34,327,322.124,327z"/>
</g>
</svg>
