<?xml version="1.0" encoding="utf-8"?>
<!-- Generator: Adobe Illustrator 16.0.0, SVG Export Plug-In . SVG Version: 6.00 Build 0)  -->
<!DOCTYPE svg PUBLIC "-//W3C//DTD SVG 1.1//EN" "http://www.w3.org/Graphics/SVG/1.1/DTD/svg11.dtd">
<svg version="1.1" id="Layer_1" xmlns="http://www.w3.org/2000/svg" xmlns:xlink="http://www.w3.org/1999/xlink" x="0px" y="0px"
	 width="500px" height="500px" viewBox="0 0 500 500" enable-background="new 0 0 500 500" xml:space="preserve">
<g>
	<path fill="#231F20" d="M150.644,352.74c-1.024,0-2.048-0.391-2.828-1.172c-1.564-1.564-1.564-4.092,0-5.656l197.48-197.479
		c1.564-1.564,4.092-1.564,5.656,0c1.563,1.564,1.563,4.092,0,5.656l-197.48,197.479C152.688,352.35,151.668,352.74,150.644,352.74z
		"/>
	<path fill="#231F20" d="M348.124,352.74c-1.024,0-2.048-0.391-2.828-1.172l-197.48-197.479c-1.564-1.564-1.564-4.092,0-5.656
		s4.092-1.564,5.656,0l197.48,197.479c1.563,1.564,1.563,4.092,0,5.656C350.168,352.35,349.148,352.74,348.124,352.74z"/>
</g>
</svg>
